<svg width="720" height="175" viewBox="0 0 720 175" fill="none" xmlns="http://www.w3.org/2000/svg">
<path fill-rule="evenodd" clip-rule="evenodd" d="M2.07129 15.8444V19.1095L65.6778 8.28827L129.284 19.1191V15.8468L65.6778 4.06909L2.07129 15.8444Z" fill="#FEFEFE"/>
<path fill-rule="evenodd" clip-rule="evenodd" d="M129.285 19.0822L65.6783 8.27051L2.07178 19.0822L2.23239 29.7548C2.23239 29.7548 34.1927 15.8818 65.6783 15.8842C97.1639 15.8842 129.124 29.7548 129.124 29.7548L129.285 19.0822Z" fill="#E20A25"/>
<path fill-rule="evenodd" clip-rule="evenodd" d="M65.6782 15.4565C25.9388 15.4565 2.22754 29.5093 2.22754 29.5093L2.70699 61.5103C2.70699 76.2007 7.50871 138.705 65.6782 172.734C123.879 138.705 128.649 76.2223 128.649 61.5079L129.129 29.5093C129.129 29.5093 105.432 15.4565 65.6782 15.4565" fill="#1D1D1B"/>
<path fill-rule="evenodd" clip-rule="evenodd" d="M126.741 31.8032C126.741 31.8032 106.069 18.6375 65.6778 18.6375C25.2887 18.6375 4.61475 31.8032 4.61475 31.8032L5.25242 61.5077C5.25242 73.144 7.47708 135.487 65.6778 169.322C123.878 135.492 126.106 73.1487 126.106 61.5077L126.741 31.8032Z" fill="#FFEC00"/>
<path fill-rule="evenodd" clip-rule="evenodd" d="M64.2432 23.563C64.2432 23.563 64.1761 24.251 64.013 24.6537C63.8668 25.0205 63.4617 25.2746 63.488 25.5239C63.5168 25.7709 63.7781 26.0633 64.1785 26.2695C64.5788 26.4757 64.737 26.6363 65.1446 26.737C65.5209 26.8329 65.998 27.1109 66.137 26.7921C66.2737 26.4757 66.0651 26.0801 65.835 25.7037C65.437 25.0493 65.238 24.8935 64.6483 23.9921L64.2432 23.563Z" fill="#1D1D1B"/>
<path fill-rule="evenodd" clip-rule="evenodd" d="M61.2629 94.2672C61.3013 94.1546 62.2482 94.7467 62.7349 95.0368C63.7657 95.6505 64.2284 96.0148 65.1393 96.7053C65.8561 97.247 66.2037 97.5323 66.9325 98.1556C67.8219 98.9227 68.2989 99.5748 68.5362 99.4214C68.8814 99.0066 67.9729 97.7912 67.165 97.1344C66.3811 96.4919 65.5708 95.9645 64.9403 95.5474C64.1373 95.0176 64.0653 94.8929 62.8595 94.0827C61.565 93.2148 60.4479 92.1289 60.4479 92.1289L59.1869 91.1364L57.214 89.4727L55.0253 87.4494L53.3664 85.6083C53.3664 85.6083 52.0814 84.0333 51.8777 83.7313C51.6715 83.4316 51.0674 82.4559 50.564 81.6313C50.1133 80.8929 49.2503 79.7422 49.1664 79.6416C48.6989 79.0782 47.6297 79.3059 46.3903 78.5748C44.8777 77.683 44.5157 76.8727 44.5157 76.8727L44.403 76.6857L44.2304 76.5395L43.4441 75.9881L42.9886 75.6885C42.9886 75.6885 42.6458 75.4056 42.2119 75.2186C41.7804 75.0292 40.8143 74.4683 40.8143 74.4683L39.0883 73.3679C39.0883 73.3679 38.4123 72.8213 38.1869 72.644C37.9616 72.4666 37.5325 72.222 37.5325 72.222L37.1801 72.0806L36.7414 72.0422C36.7414 72.0422 36.4082 71.9583 36.0701 72.3539C35.7321 72.7494 35.8112 72.5409 36.3626 74.7799C36.5808 75.6669 36.5592 78.7833 36.7917 79.7303C37.0938 80.9529 37.9448 82.5279 38.0335 82.7101L38.1797 83.5755C38.1797 83.5755 38.1462 84.1292 38.2013 84.4768C38.465 86.083 40.8191 85.0258 41.3393 87.2337C41.8523 89.4104 41.0349 91.5871 41.0349 91.5871C41.0349 91.5871 40.5243 92.6635 39.8099 92.8361C39.0955 93.0063 37.9903 91.4265 37.1873 90.144C36.401 88.8854 35.7513 87.2361 35.5427 86.7111C35.3366 86.1885 35.2287 86.0734 34.989 85.6898C34.6366 85.1265 34.3489 85.2272 33.9534 84.3354C33.5578 83.4412 33.9102 83.0816 33.7304 82.3049C33.6297 81.8686 33.5314 81.8255 33.3996 81.2094C33.2653 80.5933 33.0927 78.6371 33.0927 78.6371L32.841 76.8152C32.841 76.8152 32.7523 75.9857 32.6397 75.4655C32.2393 73.6436 32.1051 71.8816 32.1051 71.8816L32.0332 71.16L32.002 70.4121C32.002 70.4121 31.9804 70.0525 32.0691 69.6833C32.1554 69.3142 32.3376 69.0073 32.3376 69.0073L32.7643 68.2426L33.5794 67.219C33.5794 67.219 33.9701 66.8953 34.6126 66.4998C35.2551 66.1042 35.8328 66.1354 35.8328 66.1354C35.8328 66.1354 36.0006 66.1162 37.1393 66.26C38.2804 66.4015 40.6249 67.0224 41.2099 67.1782C41.7948 67.334 42.49 67.5785 42.9455 67.8279C44.2472 68.5374 44.6427 68.2378 43.6047 67.4275C42.9095 66.8809 42.7106 66.6388 42.1496 66.1234C41.6773 65.6871 41.3034 65.3994 40.951 64.9943C40.5986 64.5892 39.5869 63.0981 39.5869 63.0981L38.9564 62.1655L38.5633 61.7604L38.3379 61.595C38.3379 61.595 37.9208 61.619 37.4869 61.5351C37.0554 61.4511 36.8516 62.0577 36.8516 62.0577C36.8516 62.0577 35.9143 63.8053 34.9626 64.8792C33.4212 66.6172 32.316 67.8015 31.7455 68.722C30.9544 70.0046 31.1246 71.4094 30.7171 72.059C30.4749 72.4426 30.3479 72.4977 30.216 72.8285C29.8157 73.8354 31.2684 74.3916 30.9352 75.5111C30.4102 77.2779 26.2534 79.035 25.702 78.7426C25.1338 78.4381 25.5989 76.0433 25.7931 75.2642C25.9873 74.4874 26.5698 73.3416 26.6225 73.2816C26.6753 73.2217 26.8143 72.9532 26.8575 72.7231C26.903 72.4929 26.9198 71.9751 26.9462 71.6874C26.9749 71.3974 27.0924 70.9419 27.0924 70.9419C27.0924 70.9419 27.1116 70.846 27.4784 70.0453C27.8451 69.2446 29.1972 67.382 30.1681 65.6056C30.8034 64.4429 31.0695 63.7429 31.7095 62.5827C32.2993 61.5135 33.3037 59.8881 33.3037 59.8881C33.3037 59.8881 33.7328 59.0587 33.9342 58.7446C34.1332 58.433 34.5575 57.8289 34.9578 57.244C35.3582 56.6518 35.4588 56.2107 35.9814 55.7265C36.4201 55.3237 36.7126 55.108 37.2784 54.9258C38.1246 54.6477 38.7023 54.7987 39.5606 55.0361C40.4571 55.2806 41.0732 55.6905 41.6558 56.1772C42.2383 56.6638 42.6722 57.208 42.6722 57.208L42.9551 57.6227L43.1277 57.7282L43.6766 58.0758L44.9184 58.9005L48.0277 61.0124L48.8212 61.5854C48.929 61.619 49.7129 60.7679 51.2544 59.7035C53.0379 58.4713 53.6708 58.5648 54.2558 58.2436C54.8407 57.92 55.0828 57.6515 55.5383 57.1936C56.2311 56.5008 56.2335 56.1316 57.0198 55.1655C57.8085 54.1994 58.5492 53.6624 58.5492 53.6624C58.5492 53.6624 58.6571 53.5522 60.0667 51.9652C61.4739 50.3782 62.0948 49.1772 62.0948 49.1772L62.8691 47.6309C62.8691 47.6309 63.9862 45.2289 64.3458 44.2772C64.703 43.3255 64.703 43.0066 64.703 43.0066C64.703 43.0066 64.7582 42.7597 64.4825 42.2755C64.2068 41.7936 63.9167 42.0118 63.3869 42.122C62.3585 42.3402 61.7376 42.0717 60.702 41.8943C59.7527 41.7313 59.2588 41.4532 58.3095 41.2926C57.3482 41.1272 56.7849 40.9737 55.8212 41.0672L55.2362 41.1895C54.6921 41.3717 54.5386 41.4148 54.1359 41.6474C53.666 41.8655 53.3592 41.9374 52.8414 41.9494C52.4818 41.959 52.2636 41.9662 51.9304 41.8392C51.7027 41.7529 51.5732 41.6833 51.391 41.5227L51.1393 41.2327L51.1945 40.9713L51.415 40.7772L51.8561 40.6669L52.5321 40.4871C52.5873 40.4727 53.1818 40.2785 53.4431 40.197C53.7044 40.1155 53.9945 39.9645 53.9945 39.9645L54.0903 39.5642L53.6636 39.3844L53.1123 39.5761L52.2708 39.8398C52.2708 39.8398 51.6499 39.9765 51.1657 40.0868C50.6838 40.1994 49.9934 40.2522 49.9934 40.2522L49.7849 40.197L49.5116 39.8806L49.4277 39.4539C49.327 38.8402 49.2023 38.4686 49.3462 37.8645C49.4037 37.6128 49.4636 37.4761 49.5715 37.2412L49.8424 36.7474L50.2284 36.1265L50.9451 35.0645C51.1921 34.8128 51.3551 34.6881 51.6619 34.5179C52.1246 34.259 52.3907 34.1871 52.9612 34.1248C53.5246 34.0624 53.5965 34.0696 54.3948 33.8898C55.1955 33.71 55.7612 33.3936 55.7612 33.3936C55.7612 33.3936 57.6719 32.6888 58.8369 32.1183C60.0571 31.5213 60.5941 30.8789 61.8599 30.385C62.3921 30.1765 62.7013 30.0782 63.2551 29.9392L63.3797 29.7713L62.9099 29.4957L62.1859 29.4981L62.5862 29.232L62.814 28.9994L62.3417 28.9179C61.6034 28.834 61.5434 28.6998 61.0304 28.5727C60.4263 28.4241 60.0955 28.2371 59.4722 28.2131C58.9136 28.1892 58.3958 28.309 58.0506 28.3929C57.7054 28.4744 57.6934 28.1388 57.8301 28.0741C58.801 27.6186 58.8225 27.5826 59.5082 27.5539C59.8845 27.5347 60.4095 27.6186 60.4671 27.6474L61.4667 27.4436C61.6609 27.2518 60.8482 27.2614 60.4671 27.108C60.1171 26.9666 59.5753 26.933 59.5897 26.6981C59.6016 26.4655 59.8653 26.5902 60.0499 26.5446C60.2825 26.4895 60.4215 26.4943 60.6588 26.4607C61.0903 26.4008 61.1287 26.3624 61.764 26.3073C62.3993 26.2522 63.3102 26.5159 63.3102 26.5159C63.3102 26.5159 64.2619 26.9426 64.7294 27.1631C65.1992 27.3837 65.765 27.4963 65.765 27.4963C65.765 27.4963 66.429 27.5922 66.9373 27.2734C67.4479 26.957 67.1626 26.7508 66.978 26.4631C66.803 26.1874 66.5801 25.7991 66.9109 25.0535C67.201 24.3991 67.3496 23.6463 67.4359 23.5768C67.5342 23.4929 67.9417 24.0731 68.2006 24.3152C69.1308 25.1854 70.3701 25.6169 71.5304 27.4436C71.6239 27.5874 72.0578 27.3573 73.4123 27.5635C74.7643 27.7696 75.9366 29.22 76.241 29.5652C76.5455 29.9104 76.9458 29.896 76.9458 29.896L77.5931 29.9799L79.952 30.0207C79.952 30.0207 81.0212 29.8313 81.6373 30.0638C82.0688 30.2244 83.5071 31.1857 82.8527 31.5501C82.3948 31.809 81.9633 31.2457 81.5486 31.2169C81.0595 31.1833 80.8438 31.2768 80.4075 31.3871C79.4965 31.6172 77.5308 32.2118 78.2427 32.4491L78.3938 32.4898L78.7534 32.545C78.7534 32.545 79.6116 32.744 80.1342 32.9501C80.9229 33.2642 81.2873 33.607 82.0208 34.0337C82.4284 34.271 82.6129 34.5131 83.0684 34.6474C83.4832 34.7672 83.7492 34.6426 84.1736 34.7169C84.7321 34.8176 85.0462 34.9279 85.5568 35.1748C86.3143 35.5416 86.5948 35.985 87.2756 36.4741C87.616 36.7162 87.8989 36.757 88.1554 37.0902L88.2897 37.2892C88.3808 37.5936 87.7886 37.4138 87.4746 37.3635C87.1318 37.3083 86.9808 37.1333 86.6667 36.9871C86.1945 36.769 85.9667 36.5196 85.4561 36.4261C85.0797 36.3566 84.8568 36.4142 84.4756 36.4309C84.1088 36.4477 83.9051 36.5077 83.5359 36.5124C82.903 36.522 82.541 36.4645 81.9225 36.335C81.2249 36.1888 80.8821 35.9155 80.1821 35.7717C79.4054 35.6111 78.0174 34.9422 78.154 35.6087C78.2212 35.9323 78.9595 36.2032 78.9595 36.2032C78.9595 36.2032 79.4558 36.4789 79.9376 36.6874C80.4219 36.8936 80.6856 37.21 80.6856 37.21L81.0164 37.4594C81.0164 37.4594 81.3616 37.9292 81.8027 38.4542C82.2438 38.9768 83.0157 38.9648 83.0157 38.9648C83.0157 38.9648 83.4856 38.9648 84.4948 39.171C85.5016 39.3772 86.5349 39.9981 86.5349 39.9981C86.5349 39.9981 87.3236 40.5374 87.7766 41.0744C88.2321 41.6138 87.9708 41.8895 87.9157 41.9446L87.8198 41.9998L87.1989 41.3237L86.7986 40.9785C86.7986 40.9785 86.3982 40.7029 85.8876 40.5374C85.377 40.372 85.2116 40.4823 85.2116 40.4823C85.2116 40.4823 84.1208 40.7844 83.1835 40.758C82.2438 40.7316 81.7475 40.3576 81.7475 40.3576L81.153 39.9573C81.153 39.9573 80.2564 39.1183 80.2301 39.5162C80.2085 39.7847 80.6232 40.0844 80.6232 40.0844L81.1027 40.559C81.4599 40.9114 81.6085 41.0888 82.0232 41.4628C82.4379 41.8344 82.6992 41.8344 82.6992 41.8344L83.0037 41.9039L83.2386 41.959C83.2386 41.959 83.3753 42.0142 84.0249 42.2755C84.6746 42.5368 85.3626 43.1049 85.3626 43.1049L85.528 43.172L85.8732 43.2967C85.9284 43.3111 86.0938 43.3111 86.4677 43.3662C86.8393 43.4213 86.7027 43.6563 86.7027 43.6563L86.6332 43.7522L86.3287 43.9607C86.3287 43.9607 85.9284 44.071 85.6527 44.083C85.377 44.0974 84.991 43.9463 84.991 43.9463L84.1496 43.6275L83.1284 43.3806L82.064 43.172L81.4575 42.9539C81.3616 42.8963 81.1674 42.8556 80.7119 42.635C80.2564 42.4145 80.0766 42.1532 79.5109 41.971C78.9451 41.7936 78.6023 41.7553 78.1708 42.0525C77.4421 42.5607 79.2784 42.6422 80.1989 43.0953C81.5438 43.7618 82.3061 44.2532 82.6297 44.97C82.9486 45.6892 83.2794 45.9529 83.2794 45.9529C83.2794 45.9529 84.2287 46.4323 84.6578 46.9333C84.8903 47.2042 84.9239 47.4296 85.1564 47.7029C85.6766 48.3094 86.6907 48.2806 86.8921 48.7984C87.0814 49.2827 86.0746 49.0645 85.5448 49.0142C84.5979 48.9231 84.3701 48.0577 83.4879 47.7053C82.9845 47.5063 82.6657 47.5039 82.1527 47.3337C81.2273 47.0244 80.7886 46.6217 79.8561 46.334C79.2951 46.1614 78.2715 45.4159 78.3938 45.9888L78.5448 46.3196L78.8205 46.7056L79.2784 47.2306C79.415 47.3409 80.0215 47.7963 80.8773 48.2662C81.7332 48.7337 82.4787 49.6327 82.4787 49.6327C82.4787 49.6327 82.7352 49.997 82.8503 50.2535C82.9797 50.5412 82.8934 50.6251 83.0876 51.0255C83.2794 51.4258 83.3729 51.5001 83.6246 51.7446C84.2503 52.3535 84.9047 52.2289 85.7078 52.5573C85.9236 52.646 85.9427 52.682 86.1777 52.9313C86.4126 53.1806 86.1369 53.2885 86.1369 53.2885C86.1369 53.2885 85.2451 53.5138 84.6722 53.4683C83.9266 53.4083 83.5958 53.1782 82.8647 52.821C82.1335 52.4614 81.7475 51.8118 81.678 51.771L81.2921 51.4402C81.153 51.3443 80.7982 51.2676 80.477 51.1765C80.1582 51.0902 79.9688 51.0758 79.6499 50.9847C79.2112 50.86 78.7534 50.6683 78.5448 50.5987C78.3386 50.5292 77.8616 50.4453 77.514 50.6491C76.8212 51.059 78.5855 51.3371 79.1393 51.922C79.4198 52.2193 79.5325 52.4279 79.801 52.7371C80.0071 52.9744 80.0886 53.1446 80.3403 53.3292L80.8222 53.5929C80.8222 53.5929 81.2513 53.7871 81.8722 54.1323C82.4907 54.4751 83.2242 55.4436 83.2242 55.4436L83.6653 56.1196L83.9266 56.5056L83.9962 56.6854L84.0921 56.9059C84.0921 56.9059 84.4109 57.3207 84.6458 57.4573C84.8784 57.594 84.84 57.7186 84.84 57.7186L84.6458 57.8984C84.4804 57.9943 84.3965 57.9128 84.1616 57.8433C83.9266 57.7761 83.7756 57.5532 83.5695 57.3878C83.3633 57.2224 83.138 56.8077 82.7544 56.5727C82.4236 56.3737 81.9825 56.297 81.8171 56.2443L81.0715 55.8559L80.477 55.5946C80.477 55.5946 79.6475 55.1272 79.1921 55.0025C78.7366 54.8779 79.0266 55.1535 79.0266 55.1535C79.0266 55.1535 79.439 55.7912 79.8297 56.0501C80.3403 56.3905 81.0571 56.6878 80.8222 56.9587C80.6664 57.1409 80.453 57.0761 80.2133 57.0474C79.8345 57.0042 79.3742 56.5464 79.3742 56.5464C79.3742 56.5464 79.1801 56.4217 78.3242 56.146C77.4684 55.8703 77.7873 56.3402 77.9814 56.5871C78.1732 56.8364 78.4345 56.9755 78.4345 56.9755L79.0147 57.2368L79.2784 57.3207C79.2784 57.3207 79.5109 57.3614 80.2852 57.5412C81.0595 57.7186 81.4862 58.0926 81.4862 58.0926C81.4862 58.0926 81.8986 58.4785 82.4787 58.9077C83.0588 59.3344 83.639 59.4446 83.9554 59.4854C84.2743 59.5261 84.2575 59.7491 84.2575 59.7491L84.2862 60.0248L84.1352 60.1494L83.9554 60.219L83.5407 60.3148C83.5407 60.3148 82.6705 60.2861 81.9945 60.1207C81.3184 59.9553 80.7263 59.4854 80.6712 59.459C80.6136 59.4327 79.9808 59.0874 79.554 58.9484C79.1249 58.8094 78.4489 58.8645 78.3794 58.8933C78.3123 58.922 78.0773 58.9628 77.677 59.0731C77.2743 59.1833 77.7729 59.3344 77.7729 59.3344L78.0629 59.3631L78.7534 59.4183C78.7534 59.4183 79.4558 59.4998 80.0647 59.7227C80.6712 59.9433 81.0571 60.3844 81.4575 60.7847C81.8578 61.185 82.2989 61.4463 82.2989 61.4463L82.6153 61.6549L82.7832 61.7772L82.8239 61.8874L82.7832 62.0121L82.6585 62.1368L82.438 62.108C82.3684 62.108 81.9177 61.8707 81.5821 61.722C81.2345 61.5686 81.0547 61.4272 80.6856 61.3361C80.3643 61.257 79.94 61.2258 79.8441 61.2522C79.7482 61.2809 79.0434 61.3768 78.504 61.4176C77.9671 61.4583 77.4924 61.4679 76.8547 61.3888C75.9414 61.2785 74.7356 60.5618 74.5821 60.7607C74.2657 61.1803 75.2318 61.3025 75.6969 61.571C76.3321 61.9378 77.4421 62.2758 77.4421 62.2758C77.4421 62.2758 78.2499 62.4532 78.7246 62.6761C79.7578 63.1556 80.0766 63.8652 80.9061 64.6203C81.3688 65.0398 81.7355 65.222 82.354 65.3107C82.8862 65.3874 82.879 65.3227 83.7205 65.1597C84.5619 64.9943 85.0773 64.1912 85.3219 64.4837L85.3362 64.6755L85.2523 64.9104L85.0054 65.1981C84.852 65.3515 84.2719 65.6703 83.9698 65.7926C83.6653 65.9172 82.9198 66.1258 81.9825 66.097C81.0427 66.0683 79.7314 65.3515 79.7314 65.3515L78.7797 64.9511C78.7797 64.9511 78.3386 64.7426 78.0486 64.6347C77.2623 64.3398 76.7612 64.3662 75.951 64.1505C75.4475 64.0162 75.1215 63.8748 74.666 63.7789C74.2106 63.683 74.4647 63.8628 74.515 63.9299C74.7308 64.2176 75.0136 64.3087 75.3708 64.4813C75.8503 64.7138 76.1883 64.6659 76.6821 64.8696C77.2287 65.0926 77.7034 65.4066 78.0078 65.6008C78.3099 65.795 78.5304 66.0107 78.8205 66.3176L79.8297 67.1734L80.091 67.4491C80.1198 67.533 80.2301 67.7392 80.1749 68.07C80.1198 68.4008 79.8441 68.1683 79.8441 68.1683L79.5804 68.0029L79.3191 67.7535L78.89 67.4083C78.89 67.4083 78.5304 67.0775 77.9119 66.7587C77.291 66.4422 76.5431 66.3583 76.5431 66.3583L75.9102 66.4686C75.9366 66.6772 76.09 66.6916 76.6126 66.8282C77.1376 66.9672 77.4828 67.2285 77.4828 67.2285C77.4828 67.2285 78.0198 67.6289 78.4082 68.07C78.7941 68.5135 78.9044 68.9402 78.9044 68.9402C78.9044 68.9402 79.0986 69.2998 79.5948 69.784C80.091 70.2659 80.3523 70.1005 80.326 70.333C80.2972 70.5679 80.0766 70.6087 80.0766 70.6087L79.8993 70.5967L79.5804 70.472L78.9188 70.0573L78.0078 69.3261L77.1376 68.6789C77.1376 68.6789 76.6821 68.3888 76.3513 68.2234C76.0205 68.0556 75.5794 67.8902 75.3301 67.8087C75.0808 67.7272 74.6253 67.6984 74.6253 67.6984C74.6253 67.6984 74.0739 67.6169 73.7431 67.4922C73.2157 67.2909 72.602 66.7275 72.5325 66.7011L71.8708 66.5214C71.7749 66.5333 71.5568 67.4611 71.504 67.9933C71.2811 70.2323 71.8756 71.7186 72.7962 73.7731C74.1362 76.7601 77.8544 80.471 77.8544 80.471C77.8544 80.471 78.7869 81.0032 79.1873 81.3172C80.2996 82.1898 82.1407 83.4196 83.7684 85.0474C85.1636 86.4426 87.0215 88.9214 87.0215 88.9214C87.0215 88.9214 88.0931 90.4172 88.5893 91.4768C89.1982 92.7785 89.6849 94.7515 89.6849 94.7515L89.7688 95.1686L89.9677 95.3268L90.6174 95.3508C90.6845 95.3508 91.4205 95.2933 91.9071 95.1734C92.3938 95.0535 93.5468 94.5261 94.3068 94.1258C95.0667 93.7255 95.9753 92.9535 95.9753 92.9535C95.9753 92.9535 96.1455 92.8097 97.0373 91.8172C97.929 90.8272 98.5044 89.3409 98.7177 88.7823C98.9311 88.2237 99.1061 87.1522 99.2379 85.3207C99.3722 83.4868 99.1229 81.5474 99.1229 81.5474C99.1229 81.5474 98.7897 78.8433 98.5859 77.9227C98.3821 77.0046 97.8955 75.5111 97.8955 75.5111C97.8955 75.5111 97.5575 74.1734 97.4472 73.3272C97.3393 72.4809 97.3177 71.1121 97.3177 71.1121C97.3177 71.1121 97.3201 70.2707 97.5958 68.7196C97.8691 67.1686 98.8232 65.6128 98.8232 65.6128C98.8232 65.6128 99.0893 65.0902 100.113 63.8628C101.158 62.6138 101.491 62.41 102.525 61.6669C103.342 61.0796 104.406 60.1327 104.752 60.3532C105.13 60.5953 104.375 61.0772 104.124 61.3241C103.479 61.9594 102.27 63.0909 101.295 64.7881C100.449 66.2601 100.132 67.2333 99.9212 68.1922C99.7054 69.1511 99.7941 70.2059 99.8229 70.5655C99.8516 70.9251 100.051 70.7933 100.051 70.7933C100.051 70.7933 102.122 69.132 103.246 67.8734C104.464 66.5118 105.548 64.0857 105.969 64.0642C106.255 64.0474 106.391 64.6994 106.327 64.9967C106.053 66.2553 105.967 66.4111 105.56 67.2453C105.087 68.2066 104.656 68.6333 104.006 69.5131C103.32 70.4409 102.987 70.7957 102.438 72.0231C101.647 73.7874 102.107 75.1467 102.107 75.1467C102.107 75.1467 102.203 75.9761 102.577 75.9642C103.201 75.945 104.567 74.2166 105.461 72.807C106.12 71.7666 106.36 70.5727 106.797 69.9446C107.182 69.3861 107.53 70.8484 107.365 71.7114C107.168 72.735 106.66 73.6556 105.55 75.1035C104.459 76.5227 104.498 77.8676 104.498 77.8676C104.498 77.8676 104.38 78.4861 104.291 79.8214C104.205 81.159 104.589 83.1895 104.589 83.1895C104.589 83.1895 104.931 84.882 104.996 86.1693C105.061 87.4542 105.018 90.3933 103.817 92.6779C103.332 93.5936 102.304 94.8618 102.304 94.8618C102.304 94.8618 101.515 95.6744 100.863 96.1491C100.211 96.6237 98.653 97.3573 98.653 97.3573L97.4232 97.7696L97.1691 97.9398L97.3105 98.2347L97.6534 99.0618C97.6534 99.0618 97.977 100.121 98.0992 100.956C98.2215 101.787 98.0801 101.979 97.9578 102.622C97.8427 103.233 97.5742 102.948 97.5071 104.154C97.4472 105.216 97.9314 105.748 97.8427 106.937C97.802 107.459 97.2099 106.285 96.9294 105.784C96.3205 104.691 96.4667 103.024 96.4523 102.61C96.4403 102.195 96.4044 101.74 96.2534 101.21C96.0592 100.536 95.7859 100.004 95.4671 99.594C95.1506 99.1792 94.8126 98.9491 94.7023 98.9874L94.5777 99.3542L94.8486 99.944L95.3016 100.761C95.3016 100.761 95.4766 101.32 95.5486 102.413C95.6205 103.506 95.2849 104.849 95.2849 104.849C95.2849 104.849 94.8486 106.371 94.3859 107.263C93.8753 108.25 92.7438 109.593 92.7438 109.593C92.7438 109.593 91.9311 110.336 91.3222 111.559C90.7133 112.781 91.2335 113.318 91.0129 113.469C90.778 113.628 90.2962 112.767 90.1667 112.182C90.0469 111.645 90.1092 111.388 90.3273 110.777C90.5359 110.195 91.0249 109.353 91.0249 109.353L91.7609 108.107C91.7609 108.107 92.6335 106.426 92.9092 105.206C93.1873 103.988 92.8756 102.638 92.8756 102.638C92.8756 102.638 92.8373 102.193 92.5328 102.212C92.2284 102.226 92.0078 102.497 91.8832 102.823C91.6314 103.49 91.9886 103.37 91.6051 104.484C91.303 105.362 91.2215 105.247 91.0633 105.765C90.8739 106.39 90.7684 107.03 90.7852 107.416C90.7996 107.805 90.5814 107.644 90.5814 107.644C90.5814 107.644 90.2171 106.946 90.2171 106.088C90.2171 105.618 90.2338 105.355 90.2866 104.89C90.3705 104.137 90.6773 102.988 90.6773 102.988C90.6773 102.988 91.0106 101.855 90.9362 100.814C90.8619 99.7785 90.4975 99.5844 90.4975 99.5844C90.4975 99.5844 90.4064 99.4429 90.0037 99.4693C89.601 99.4981 89.6201 100.217 89.6201 100.217C89.6201 100.217 89.4979 101.241 89.3397 101.879C88.8962 103.645 88.3088 104.571 87.2612 106.059C86.3167 107.399 85.0318 108.579 84.3893 109.135C83.7492 109.694 81.7811 111.13 81.7811 111.13L79.4749 112.666C79.4749 112.666 78.5616 113.558 78.1373 114.62C77.7129 115.682 77.7393 116.511 77.9814 117.487C78.226 118.463 78.5808 118.916 78.7653 119.187C78.9499 119.455 79.3047 119.935 79.4222 120.493C79.4941 120.841 79.4414 121.049 79.4629 121.407C79.4797 121.713 79.5229 121.886 79.5157 122.193C79.5061 122.682 79.5972 123.03 79.3191 123.432C79.1106 123.739 78.5568 123.998 78.5568 123.998C78.5568 123.998 77.9311 124.276 77.5571 124.501C73.6304 126.875 72.2352 128.409 70.0225 131.051C69.3201 131.89 69.8356 131.844 69.0828 132.842C68.6321 133.441 67.5821 133.436 67.1962 134.15C66.6712 135.124 68.3924 136.083 66.4027 136.941C63.8424 138.048 59.4338 137.255 59.3475 136.91C59.1078 135.956 60.2082 134.862 60.5965 134.436C62.3921 132.472 63.9958 132.422 64.5832 130.799C64.7078 130.456 64.6623 130.159 66.0862 129.102C67.0907 128.354 71.1013 125.341 72.8489 123.327C73.4482 122.636 73.966 122.181 74.2273 121.431C74.4862 120.68 73.966 120.206 73.966 120.206L73.2469 119.036L71.8684 116.571C71.8684 116.571 71.2931 115.265 70.9742 114.51C70.6554 113.752 70.0489 111.715 70.0489 111.715C70.0489 111.715 69.6078 109.89 69.5335 108.699C69.3992 106.556 69.6941 105.311 70.2551 103.24C70.9862 100.538 72.6403 99.4118 73.2996 96.746C73.4914 95.9717 73.5345 94.6412 73.1414 94.7059C72.765 94.7683 72.7362 95.8207 72.4534 96.5255C71.3914 99.172 69.9794 100.335 69.2099 103.08C68.6897 104.935 68.4811 106.038 68.4859 107.963C68.4883 109.061 68.4451 108.859 68.7304 110.77C68.8359 111.48 69.0157 111.854 69.2219 112.539C69.3705 113.026 69.766 113.937 69.766 113.937C69.766 113.937 70.3174 115.15 70.5044 116.001C70.5667 116.288 70.6362 116.454 70.6171 116.749C70.5835 117.255 70.6674 117.362 70.4229 117.823C70.1232 118.386 70.3078 118.724 69.3369 118.933C68.4787 119.115 66.7167 118.547 66.7167 118.547C66.7167 118.547 59.4794 116.348 54.8575 116.979C53.9393 117.106 53.4527 117.437 52.5273 117.422C51.6931 117.413 51.264 116.756 50.4297 117.005L50.0534 117.279C48.826 118.132 49.7609 119.549 46.539 118.81C44.5564 118.357 42.1592 117.149 42.5763 116.384C43.1301 115.373 43.878 115.207 45.4386 114.567C47.1119 113.882 49.6266 114.076 50.1181 114.04C50.7246 113.997 51.5948 113.572 52.6712 113.553C54.5386 113.524 54.8742 113.74 54.8742 113.74L58.0434 114.021L64.1109 114.1C64.1109 114.1 65.1969 114.013 65.6308 113.932C66.0647 113.848 66.4123 112.99 66.6448 112.585C66.8797 112.18 66.64 111.578 66.64 111.578L66.4554 111.297L65.8825 110.365L64.8133 108.565L63.629 106.208C63.629 106.208 62.8547 104.561 62.4424 103.478C62.0325 102.408 61.7927 101.802 61.5195 100.69C61.2342 99.5412 61.0616 98.6159 61.028 97.6977C60.9777 96.3816 60.8938 95.346 61.2629 94.2672" fill="#1D1D1B"/>
<path fill-rule="evenodd" clip-rule="evenodd" d="M100.664 92.0792C101.937 90.437 102.062 88.9172 102.138 86.7692C102.193 85.211 101.606 82.8066 101.606 82.8066L101.527 82.634C101.527 82.634 101.299 82.3439 101.163 82.7251C101.184 83.0679 101.225 83.3364 101.225 83.3364L101.304 86.4336C101.304 86.4336 101.206 87.9918 100.674 89.6004C99.7794 92.3093 97.4061 93.5223 97.0561 94.4956C96.4712 96.1233 99.1369 94.0521 100.664 92.0792" fill="#FEFEFE"/>
<path fill-rule="evenodd" clip-rule="evenodd" d="M87.2729 97.088C87.2729 97.088 86.7503 97.2342 86.7407 97.752C86.7287 98.2698 86.8677 98.7181 86.8557 99.3366C86.8414 100.125 86.1126 101.046 86.5825 101.343C87.3879 101.854 88.0807 98.2554 87.8338 97.7232C87.5893 97.1886 87.3496 97.0784 87.2729 97.088" fill="#FEFEFE"/>
<path fill-rule="evenodd" clip-rule="evenodd" d="M78.2602 122.028C78.2602 122.028 78.1116 121.949 77.8191 122.059C77.5267 122.165 77.5507 122.467 77.5507 122.467C77.5507 122.467 77.4931 122.788 77.728 122.821C77.963 122.857 78.3489 122.287 78.3465 122.22L78.2602 122.028Z" fill="#FEFEFE"/>
<path fill-rule="evenodd" clip-rule="evenodd" d="M69.784 128.051L69.772 128.202L69.9566 128.183C69.9566 128.183 71.4213 127.039 72.2891 126.229C73.212 125.369 74.5257 123.889 74.5257 123.889L74.5114 123.681L73.9528 123.832L73.5285 124.141L72.9627 124.697L71.8288 125.8L71.124 126.464L70.4336 127.128L70.1388 127.461L70.0405 127.62L69.9446 127.756L69.8415 127.883L69.8055 127.974L69.784 128.051Z" fill="#FEFEFE"/>
<path fill-rule="evenodd" clip-rule="evenodd" d="M67.249 129.711C67.249 129.711 67.0884 129.582 66.8415 129.711C66.5945 129.838 66.326 130.184 66.3069 130.222L66.2397 130.608L66.6952 130.524L67.1531 130.193C67.1531 130.193 67.3952 130.045 67.249 129.711" fill="#FEFEFE"/>
<path fill-rule="evenodd" clip-rule="evenodd" d="M62.4036 134.625C62.4036 134.625 62.1998 134.234 61.9241 134.397C61.6484 134.555 61.5046 134.61 61.2553 134.953L60.8933 135.449C60.8454 135.54 60.5793 136.049 61.1234 136.08C62.0584 136.14 61.4471 135.533 61.7683 135.303C62.0296 135.119 62.5163 135.166 62.5234 134.975L62.4036 134.625Z" fill="#FEFEFE"/>
<path fill-rule="evenodd" clip-rule="evenodd" d="M45.7994 115.016L45.1953 115.35L45.5837 115.755C45.646 115.764 45.7755 115.908 46.147 115.659C46.5186 115.407 46.5042 115.189 46.5042 115.189C46.5042 115.189 46.7224 114.937 45.7994 115.016" fill="#FEFEFE"/>
<path fill-rule="evenodd" clip-rule="evenodd" d="M54.9345 114.717C54.9345 114.717 54.9297 114.513 54.5269 114.535C54.1266 114.561 54.0379 114.633 54.0283 114.696C54.0187 114.758 54.0475 114.859 54.4095 114.885C54.7738 114.916 54.9225 114.885 54.9345 114.717" fill="#FEFEFE"/>
<path fill-rule="evenodd" clip-rule="evenodd" d="M63.563 114.97C62.8414 114.961 63.0715 114.985 62.6232 115.011C61.8106 115.054 61.3671 115.018 60.5664 114.966C59.4445 114.894 57.7064 114.608 57.7064 114.608L57.402 114.702C57.3205 114.841 57.6154 115.143 57.8767 115.224C59.2958 115.668 59.3725 115.589 60.3458 115.606C60.8828 115.613 61.1849 115.56 61.7219 115.524C62.4003 115.476 62.7215 115.584 63.4623 115.385C63.6541 115.335 63.841 114.973 63.563 114.97" fill="#FEFEFE"/>
<path fill-rule="evenodd" clip-rule="evenodd" d="M68.4299 113.524C68.4299 113.524 68.2861 113.356 67.9865 113.503C67.6844 113.649 67.5022 113.977 67.5022 113.977C67.5022 113.977 67.3632 114.196 67.6604 114.16C67.9577 114.124 68.2166 113.997 68.2909 113.953L68.4299 113.524Z" fill="#FEFEFE"/>
<path fill-rule="evenodd" clip-rule="evenodd" d="M64.194 55.1521C64.194 55.1521 66.2533 53.2247 67.7204 50.6836C68.5954 49.1662 68.9742 45.635 68.2238 46.5172C67.8834 46.9175 67.4783 48.7514 66.8286 50.1035C65.9009 52.0357 63.9231 54.7686 63.9231 54.7686C63.9231 54.7686 63.5012 55.6795 64.194 55.1521" fill="#FEFEFE"/>
<path fill-rule="evenodd" clip-rule="evenodd" d="M55.9861 60.0379C55.9861 60.0379 55.768 60.2057 55.8663 60.4814C55.967 60.7595 56.3913 60.5509 56.3913 60.5509C56.3913 60.5509 57.3334 60.1937 58.3306 60.1506C59.3279 60.1098 60.7135 60.4095 60.7135 60.4095L61.483 60.6324L62.0104 60.8722L62.6002 60.8889C62.792 60.7139 61.4015 59.4506 59.9776 59.2588C57.6163 58.9376 56.0604 59.954 56.0604 59.954L55.9861 60.0379Z" fill="#FEFEFE"/>
<path fill-rule="evenodd" clip-rule="evenodd" d="M46.2393 68.3688C46.4095 68.5102 47.203 67.0096 47.8623 66.0555C48.3465 65.3578 49.2311 64.188 49.2311 64.188C49.2311 64.188 49.6267 63.6558 48.953 63.9531C48.6773 64.0753 47.9246 64.6459 47.3972 65.6983C46.9489 66.5924 46.0691 68.2298 46.2393 68.3688" fill="#FEFEFE"/>
<path fill-rule="evenodd" clip-rule="evenodd" d="M40.7761 61.8267C40.7761 61.8267 40.6059 62.4068 41.2892 63.138C41.9748 63.8691 42.1522 64.4732 42.5885 64.0393C42.7083 63.9195 42.1618 62.9294 41.8813 62.6585C41.6008 62.3876 41.3946 62.1599 41.3946 62.1599L41.2196 62.0136L40.9895 61.889L40.8601 61.8386L40.7761 61.8267Z" fill="#FEFEFE"/>
<path fill-rule="evenodd" clip-rule="evenodd" d="M38.5631 56.2395C38.5631 56.2395 37.8247 56.3785 37.6402 56.7381C37.458 57.0953 38.4936 56.8748 38.4936 56.8748C38.4936 56.8748 39.1792 56.9155 39.196 56.6518C39.2128 56.3881 39.1073 56.3594 38.5631 56.2395" fill="#FEFEFE"/>
<path fill-rule="evenodd" clip-rule="evenodd" d="M26.8086 75.7166C26.437 75.6039 26.3699 76.3495 26.3243 76.5868C26.2764 76.8265 26.4897 77.3084 26.576 77.306C26.6647 77.3012 26.962 76.8313 26.9812 76.6012C26.9979 76.371 27.1442 75.8197 26.8086 75.7166" fill="#FEFEFE"/>
<path fill-rule="evenodd" clip-rule="evenodd" d="M39.014 90.2226L38.2373 89.8989L38.7935 91.052C38.7935 91.052 38.9948 91.3565 39.3041 91.2174C39.6133 91.076 39.5007 90.7332 39.5007 90.7332C39.5007 90.7332 39.2921 90.2945 39.014 90.2226" fill="#FEFEFE"/>
<path fill-rule="evenodd" clip-rule="evenodd" d="M33.9232 74.5298L33.6858 74.6952C33.6211 74.9014 33.6283 75.2442 33.5828 75.6493C33.5444 75.9681 33.6643 76.8216 33.6643 76.8216C33.6643 76.8216 33.7314 77.4952 33.8656 77.9003C34.0119 78.3414 34.4026 78.9647 34.4026 78.9647L34.7263 79.2716L34.8653 79.0438C34.8653 79.0438 34.2995 76.7976 34.2804 76.5675C34.2132 75.8243 34.218 74.9133 34.218 74.9133L34.2132 74.7743C34.2132 74.7743 34.2037 74.5394 33.9232 74.5298" fill="#FEFEFE"/>
<path fill-rule="evenodd" clip-rule="evenodd" d="M34.8046 67.6835C34.8046 67.6835 34.4929 67.6211 34.2052 68.2229C33.9176 68.8246 33.9775 69.0715 34.0015 69.1003C34.0278 69.1266 34.2556 69.1194 34.62 68.5609C34.9843 68.0023 34.9028 67.7938 34.9028 67.7938L34.8046 67.6835Z" fill="#FEFEFE"/>
<path fill-rule="evenodd" clip-rule="evenodd" d="M43.3658 73.8911C43.3658 73.8911 43.7445 74.4497 43.0205 74.3178C42.299 74.1884 40.7863 72.9969 40.1726 72.6757C39.5589 72.3545 38.5592 72.2466 38.9788 71.8774L39.1993 71.7432L39.7603 71.9158L40.8918 72.3808C40.9301 72.3976 41.5271 72.6517 41.9538 72.9034C42.3805 73.1551 43.0709 73.6394 43.0709 73.6394L43.3658 73.8911Z" fill="#FEFEFE"/>
<path fill-rule="evenodd" clip-rule="evenodd" d="M63.3245 91.0712C63.5211 91.6921 61.0519 89.7671 59.7311 88.7482C56.2239 86.0489 51.9352 80.5184 52.4698 80.0318C52.9133 79.6267 54.6728 82.163 57.2499 84.9486C60.0043 87.926 63.2095 90.7044 63.3245 91.0712" fill="#FEFEFE"/>
<path fill-rule="evenodd" clip-rule="evenodd" d="M73.629 88.4254C72.8666 89.2428 72.5933 90.2904 73.0368 91.0719C73.4659 91.8319 73.6026 89.962 74.082 89.4058C74.492 88.9312 74.7437 89.0031 75.4269 88.5213C76.5872 87.7038 74.5974 87.3849 73.629 88.4254" fill="#FEFEFE"/>
<path fill-rule="evenodd" clip-rule="evenodd" d="M69.2396 70.9676C68.7194 70.8836 68.7338 71.6795 68.8105 72.2525C69.1605 74.7888 70.2992 76.7426 71.8191 78.586C72.742 79.708 75.2831 81.7049 75.5804 81.3861C75.6858 81.271 73.1615 79.3244 71.5578 76.8169C70.4215 75.0405 69.8102 73.535 69.6687 72.0703C69.6519 71.8857 69.6951 71.0419 69.2396 70.9676" fill="#FEFEFE"/>
<path fill-rule="evenodd" clip-rule="evenodd" d="M59.418 33.3494C58.2745 33.9727 56.2896 34.5169 56.2896 34.5169C56.2896 34.5169 56.1961 34.7111 56.4526 34.6919C58.1522 34.5553 58.7995 34.3395 59.7057 33.944C60.6118 33.5484 61.2735 32.4648 61.2735 32.4648C61.2735 32.4648 61.6379 31.7936 60.9522 32.3474C60.7437 32.5152 60.0461 33.0066 59.418 33.3494" fill="#FEFEFE"/>
<path fill-rule="evenodd" clip-rule="evenodd" d="M73.2186 28.9877C73.2186 28.9877 72.8302 28.9014 72.5689 29.0644C72.3076 29.2274 72.3867 29.3592 72.3867 29.3592C72.3867 29.3592 72.7871 29.6733 73.0748 29.7188C73.3648 29.7644 73.9857 30.0329 73.9593 29.8219L73.4679 29.1243L73.2186 28.9877Z" fill="#FEFEFE"/>
<path fill-rule="evenodd" clip-rule="evenodd" d="M66.7253 40.9063C66.79 41.0429 67.9503 40.7265 68.3962 40.4772C68.7486 40.2806 68.8805 39.6214 68.8805 39.6214C68.8805 39.6214 68.9787 38.9837 68.8301 39.2282C68.1661 40.3118 66.6582 40.7696 66.7253 40.9063" fill="#FEFEFE"/>
<path fill-rule="evenodd" clip-rule="evenodd" d="M66.6854 37.9304C67.1528 37.0338 65.398 38.8629 64.5063 39.3376C63.9621 39.6277 63.0751 40.0088 63.0751 40.0088C63.0751 40.0088 62.8378 40.3037 63.1662 40.2773C63.4946 40.2509 64.3289 40.5386 65.0001 40.0136L65.8655 38.8629C65.8655 38.8629 66.46 38.3595 66.6854 37.9304" fill="#FEFEFE"/>
<path fill-rule="evenodd" clip-rule="evenodd" d="M66.4169 41.7569C66.4504 41.9055 68.421 41.8528 68.9124 41.709C69.3008 41.5963 69.5069 40.9107 69.5069 40.9107L69.5453 40.5151C68.6559 41.4237 66.3833 41.6083 66.4169 41.7569" fill="#FEFEFE"/>
<path fill-rule="evenodd" clip-rule="evenodd" d="M34.8375 59.7631C34.8375 59.7631 34.5379 59.6576 34.1687 60.2138C33.7995 60.77 32.1454 63.2775 32.4403 63.6515C32.7879 64.0878 34.219 61.4052 34.6577 60.9018C35.0964 60.4008 34.9214 59.8854 34.9214 59.8854L34.8375 59.7631Z" fill="#FEFEFE"/>
<path fill-rule="evenodd" clip-rule="evenodd" d="M70.8828 105.1C70.7078 105.932 70.9211 107.641 71.2016 107.974C71.9064 108.82 71.4797 106.656 71.5708 105.893C71.6595 105.184 71.7506 104.939 72.0982 104.179C72.7239 102.82 71.2544 103.323 70.8828 105.1" fill="#FEFEFE"/>
<path fill-rule="evenodd" clip-rule="evenodd" d="M64.8457 32.4473C64.8457 32.4473 64.2991 32.4592 63.8724 32.6966C63.4457 32.9315 63.333 33.2599 63.333 33.2599L63.3066 33.6339C63.4337 33.9192 64.0186 33.4829 64.4334 33.6291C64.769 33.7466 64.9272 33.8425 65.1813 34.1493C65.4042 34.4178 65.7998 34.8014 66.0443 34.5832C66.2912 34.3675 66.2001 33.8233 66.2001 33.8233C66.2001 33.8233 65.9101 32.9363 65.5313 32.6822C65.1501 32.4305 64.8457 32.4473 64.8457 32.4473" fill="#FEFEFE"/>
<path fill-rule="evenodd" clip-rule="evenodd" d="M55.7831 38.6958C55.7831 38.6958 55.4786 38.7461 55.5505 39.1129C55.6225 39.4821 55.8214 39.4222 55.8214 39.4222C55.8214 39.4222 56.4519 39.1561 56.4136 38.7725C56.3728 38.3889 55.7831 38.6958 55.7831 38.6958" fill="#FEFEFE"/>
<path fill-rule="evenodd" clip-rule="evenodd" d="M51.3583 36.7126C51.3583 36.7126 51.0275 36.7246 50.795 37.1346C50.5624 37.5469 50.4258 37.9664 50.4258 37.9664L50.5097 38.6808C50.7039 38.8486 50.9148 38.3284 51.1929 38.1294L51.6388 37.8346C51.8761 37.6692 52.2645 37.8777 52.2333 37.3959C52.2045 36.9164 51.6891 36.6887 51.3583 36.7126" fill="#FEFEFE"/>
<path fill-rule="evenodd" clip-rule="evenodd" d="M65.6554 31.5626C65.6554 31.5626 64.9027 31.4547 64.9315 31.7448C64.9578 32.0133 65.3414 31.8527 65.5883 31.9605C65.828 32.066 65.9815 32.1092 66.1756 32.2866L66.4705 32.6629C66.7126 32.6653 66.6623 32.5694 66.6623 32.5694C66.6623 32.5694 66.4465 31.9198 66.1637 31.7352C65.8832 31.5482 65.6554 31.5626 65.6554 31.5626" fill="#FEFEFE"/>
<path fill-rule="evenodd" clip-rule="evenodd" d="M74.061 34.5973C73.9531 35.0048 73.886 35.1486 73.886 35.1486C73.886 35.1486 73.6726 35.9829 74.5141 35.6736C75.3555 35.3644 74.9216 35.4962 75.5233 35.2038C76.125 34.9089 76.1058 35.0695 76.5469 35.0911C76.6956 35.0983 76.7915 35.1055 77.0144 35.0599C77.2014 35.0192 77.1247 34.7914 76.7004 34.6788C76.2449 34.5565 75.6839 34.5877 75.0319 34.5805C74.6531 34.5781 74.1712 34.1897 74.061 34.5973" fill="#FEFEFE"/>
<path fill-rule="evenodd" clip-rule="evenodd" d="M74.43 31.5182C74.43 31.5182 74.0441 31.4319 73.7804 31.5949C73.5191 31.7579 73.5982 31.8898 73.5982 31.8898C73.5982 31.8898 73.9985 32.2038 74.2886 32.2494C74.5762 32.2949 75.1971 32.5634 75.1708 32.3524L74.6793 31.6548L74.43 31.5182Z" fill="#FEFEFE"/>
<path fill-rule="evenodd" clip-rule="evenodd" d="M75.9131 37.2977C75.9131 37.2977 75.4984 37.2162 75.2179 37.372C74.9351 37.5302 75.019 37.6525 75.019 37.6525C75.019 37.6525 75.4481 37.9497 75.7573 37.9929C76.0666 38.0336 76.7306 38.2853 76.7042 38.0864L76.1792 37.4271L75.9131 37.2977Z" fill="#FEFEFE"/>
<path fill-rule="evenodd" clip-rule="evenodd" d="M76.0361 39.3962C76.0361 39.3962 75.5998 39.3027 75.3025 39.4801C75.0052 39.6599 75.0939 39.8013 75.0939 39.8013C75.0939 39.8013 75.5494 40.1417 75.873 40.1921C76.1991 40.24 76.9015 40.5301 76.8727 40.3024C76.8415 40.0746 76.4508 39.6575 76.3165 39.5424L76.0361 39.3962Z" fill="#FEFEFE"/>
<path fill-rule="evenodd" clip-rule="evenodd" d="M76.2339 41.4417C76.2339 41.4417 75.7592 41.3338 75.438 41.5352C75.1167 41.7366 75.2126 41.8972 75.2126 41.8972C75.2126 41.8972 75.7065 42.2807 76.0589 42.3383C76.4136 42.3934 77.1736 42.7218 77.1424 42.4653C77.1089 42.2088 76.6845 41.7366 76.5383 41.6071L76.2339 41.4417Z" fill="#FEFEFE"/>
<path fill-rule="evenodd" clip-rule="evenodd" d="M76.1875 43.9706C76.1875 43.9706 75.7128 43.8651 75.3916 44.0641C75.0703 44.2654 75.1662 44.426 75.1662 44.426C75.1662 44.426 75.6601 44.8096 76.0125 44.8671C76.3649 44.9247 77.1272 45.2531 77.096 44.9942C77.0625 44.7377 76.6381 44.2654 76.4919 44.1384L76.1875 43.9706Z" fill="#FEFEFE"/>
<path fill-rule="evenodd" clip-rule="evenodd" d="M75.8403 48.8976C75.8403 48.8976 75.3656 48.7921 75.0444 48.9911C74.7232 49.1924 74.8191 49.353 74.8191 49.353C74.8191 49.353 75.3129 49.7366 75.6653 49.7941C76.0177 49.8493 76.78 50.1777 76.7465 49.9212C76.7153 49.6647 76.291 49.1924 76.1448 49.063L75.8403 48.8976Z" fill="#FEFEFE"/>
<path fill-rule="evenodd" clip-rule="evenodd" d="M76.1626 46.4293C76.1626 46.4293 75.6161 46.3071 75.2421 46.5396C74.8729 46.7721 74.9832 46.9567 74.9832 46.9567C74.9832 46.9567 75.5513 47.4002 75.9613 47.465C76.3688 47.5321 77.2486 47.9108 77.2126 47.6136C77.1743 47.3163 76.6829 46.7721 76.515 46.6211L76.1626 46.4293Z" fill="#FEFEFE"/>
<path fill-rule="evenodd" clip-rule="evenodd" d="M75.6073 51.1217C75.6073 51.1217 75.2166 51.033 74.9529 51.1984C74.6868 51.3638 74.7659 51.4956 74.7659 51.4956C74.7659 51.4956 75.1734 51.8145 75.4635 51.86C75.7536 51.9056 76.3816 52.1764 76.3553 51.9655L75.859 51.2583L75.6073 51.1217Z" fill="#FEFEFE"/>
<path fill-rule="evenodd" clip-rule="evenodd" d="M75.2403 53.2596C75.2403 53.2596 74.9166 53.1853 74.6961 53.3243C74.4779 53.461 74.5427 53.5712 74.5427 53.5712C74.5427 53.5712 74.8783 53.8325 75.1204 53.8733C75.3625 53.9092 75.8827 54.1346 75.8612 53.9596L75.4488 53.3723L75.2403 53.2596Z" fill="#FEFEFE"/>
<path fill-rule="evenodd" clip-rule="evenodd" d="M74.7829 55.2061L74.2938 55.2636L74.1548 55.4865C74.1548 55.4865 74.4568 55.7239 74.675 55.7574C74.8931 55.7934 75.3606 55.9948 75.3414 55.8365L74.9723 55.3091L74.7829 55.2061Z" fill="#FEFEFE"/>
<path fill-rule="evenodd" clip-rule="evenodd" d="M74.3185 56.8003L73.8295 56.8578L73.6904 57.0808C73.6904 57.0808 73.9925 57.3181 74.2106 57.3517C74.4288 57.3876 74.8963 57.589 74.8771 57.4308L74.5079 56.9034L74.3185 56.8003Z" fill="#FEFEFE"/>
<path fill-rule="evenodd" clip-rule="evenodd" d="M73.7651 58.6523L73.3695 58.7003L73.2568 58.8801L73.6788 59.0982L74.2157 59.163L73.9161 58.7362L73.7651 58.6523Z" fill="#FEFEFE"/>
<path fill-rule="evenodd" clip-rule="evenodd" d="M73.0989 60.3862L72.7585 60.427L72.6626 60.5828L73.0246 60.7698L73.4873 60.8249L73.2307 60.4581L73.0989 60.3862Z" fill="#FEFEFE"/>
<path fill-rule="evenodd" clip-rule="evenodd" d="M72.4124 62.0334L72.072 62.0742L71.9761 62.2276L72.3381 62.417L72.8007 62.4721L72.5442 62.1054L72.4124 62.0334Z" fill="#FEFEFE"/>
<path fill-rule="evenodd" clip-rule="evenodd" d="M27.8682 70.4107C27.8682 70.4107 27.523 71.0772 27.6932 71.4439C27.861 71.8083 28.326 70.859 28.326 70.859L28.6089 69.7371C28.4099 69.5621 28.2973 70.0559 27.8682 70.4107" fill="#FEFEFE"/>
<path fill-rule="evenodd" clip-rule="evenodd" d="M53.9846 129.039C53.9846 129.039 53.7281 128.703 53.4835 128.945C53.2414 129.19 52.925 129.578 52.3592 129.537C51.7935 129.499 51.5489 129.413 51.2325 129.276C50.9185 129.137 50.4774 128.926 50.4774 128.926C50.4774 128.926 49.3243 128.485 48.351 128.458C47.3777 128.432 45.7835 128.84 45.014 129.676C44.2445 130.513 44.0479 131.376 44.0479 131.376C44.0479 131.376 43.789 132.893 44.2301 133.591C44.6712 134.291 45.1531 135.039 46.2246 135.698C47.2986 136.357 47.7661 136.6 47.7661 136.6L49.6287 137.455L51.3524 138.105C51.3524 138.105 53.8407 138.851 54.1428 140.732C54.4448 142.617 53.3133 145.052 49.8781 145.275C46.4955 145.493 44.851 143.854 44.3236 142.799C43.7962 141.746 44.0983 140.85 44.0983 140.85L44.2445 140.562L44.3763 140.495C44.3763 140.495 44.9013 140.85 45.4168 140.785C45.9298 140.718 46.8767 140.1 46.6801 139.088C46.4811 138.074 45.5726 137.851 45.1387 137.889C44.7048 137.93 42.7702 138.429 42.7294 141.245C42.6911 144.062 45.2585 145.563 45.2585 145.563C45.2585 145.563 47.0733 146.694 49.1277 146.603C51.1798 146.51 52.8794 145.695 52.8794 145.695C52.8794 145.695 55.9192 144.182 55.9983 140.876C56.0774 137.573 53.9846 136.415 53.9846 136.415C53.9846 136.415 53.2342 135.89 52.5486 135.574C51.8654 135.257 50.2209 134.466 50.2209 134.466L48.5476 133.704L47.5359 133.138L46.9678 132.757C46.9678 132.757 45.6133 131.69 46.3373 130.532C47.0613 129.374 49.1541 129.808 49.1541 129.808C49.1541 129.808 50.7722 130.149 52.0356 131.057C53.3013 131.966 54.0373 133.059 54.0373 133.059L54.5647 133.915L54.6294 134.035L55.0777 133.876C55.0777 133.876 54.3801 131.927 54.2483 131.11C54.1164 130.295 53.9846 129.039 53.9846 129.039" fill="#1D1D1B"/>
<path fill-rule="evenodd" clip-rule="evenodd" d="M74.0273 140.18C74.0273 140.18 74.4756 140.681 75.0797 140.681C75.6862 140.681 76.554 140.259 76.542 139.168C76.5276 138.075 75.4225 137.785 75.4225 137.785C75.4225 137.785 73.7516 137.389 72.9341 139.086C72.119 140.784 72.5673 142.258 72.5673 142.258C72.5673 142.258 72.9485 144.55 75.3697 145.907C77.7934 147.261 80.3848 146.261 80.3848 146.261C80.3848 146.261 82.3338 145.617 84.019 143.72C85.7019 141.824 86.5074 139.575 86.5074 139.575L87.0971 138.101L87.8091 138.113C87.8091 138.113 88.7968 138.207 89.4944 137.638C90.192 137.073 90.6259 136.298 90.6259 136.298L90.7194 136.061L90.2711 135.85C90.2711 135.85 89.7581 136.519 89.0461 136.586C88.3365 136.653 87.5982 136.533 87.5982 136.533L88.2838 134.704C88.2838 134.704 89.0725 133.11 89.2954 132.743C89.5208 132.374 90.4413 131.19 90.4413 131.19C90.4413 131.19 92.3375 131.175 94.1666 130.794C95.9958 130.413 97.1273 129.953 97.1273 129.953L99.3927 129.018L99.944 128.716L99.7738 128.268C99.7738 128.268 97.7338 128.992 94.7204 129.334C91.7047 129.677 89.8108 129.308 89.8108 129.308L86.3875 128.781C86.3875 128.781 85.3471 128.61 84.544 128.596C83.741 128.584 82.1084 128.886 82.1084 128.886C82.1084 128.886 80.4783 129.255 79.7399 129.807C79.004 130.36 77.2516 131.65 78.0547 133.625C78.8577 135.598 82.1348 134.546 82.5975 133.084L82.7821 132.611L82.8348 132.348L82.5567 132.242L82.2283 132.626C82.2283 132.626 81.0033 133.652 80.0564 132.993C79.1095 132.336 79.7543 131.413 79.8454 131.31C79.9365 131.202 80.4519 130.586 81.6745 130.308C82.8995 130.032 84.743 130.478 84.743 130.478L86.7423 130.847L87.9002 131.058L88.3101 131.111L87.6125 131.887C87.6125 131.887 86.5985 132.861 85.8865 134.27C85.1769 135.678 84.8485 136.413 84.8485 136.413L84.7814 136.519C84.7814 136.519 83.8872 136.627 83.3214 136.967C82.7557 137.31 82.3865 137.837 82.3865 137.837L82.1228 138.312L82.4776 138.614C82.4776 138.614 82.8851 138.154 83.3862 138.022C83.8872 137.89 84.2684 138.087 84.2684 138.087C84.2684 138.087 83.5444 139.878 83.2016 140.522C82.8588 141.167 82.281 142.351 81.466 143.234C80.6485 144.116 80.0564 144.878 78.1865 145.142C76.319 145.403 75.0006 144.207 74.5139 143.615C74.0273 143.023 73.7372 142.126 73.7108 141.469C73.6845 140.81 74.0273 140.18 74.0273 140.18" fill="#1D1D1B"/>
<path fill-rule="evenodd" clip-rule="evenodd" d="M2.07129 15.902V12.0856L65.6802 0.000976562L129.284 12.0856V15.9044L65.6778 4.13385L2.07129 15.902Z" fill="#00934D"/>
<!-- <path d="M422.913 73.4331V79.4511H397.056V88.4781H416.793V94.3431H397.056V103.982H422.913V110H388.386V73.4331H422.913Z" fill="white"/>
<path d="M448.239 110.612C433.398 110.612 428.757 106.583 428.604 98.4741H437.07C437.376 102.401 439.875 104.696 448.29 104.696C456.501 104.696 459.204 102.809 459.204 99.8511C459.204 96.7401 457.368 95.7201 447.423 94.8021C432.735 93.4761 429.318 90.5691 429.318 83.8881C429.318 77.0031 434.979 72.8721 446.709 72.8721C459.561 72.8721 465.426 76.2381 465.681 84.0411H457.011C456.705 80.5221 454.002 78.9921 446.913 78.9921C440.232 78.9921 437.376 80.2671 437.376 83.1231C437.376 85.9791 439.212 87.0501 449.412 88.0701C463.437 89.4471 467.466 91.8441 467.466 99.0351C467.466 106.532 461.091 110.612 448.239 110.612Z" fill="white"/>
<path d="M499.256 73.4331C508.64 73.4331 512.567 77.7171 512.567 84.5511C512.567 91.0791 508.64 96.0261 499.154 96.0261H483.752V110H475.082V73.4331H499.256ZM483.752 89.9571H497.828C502.01 89.9571 504.305 88.3251 504.305 84.6531C504.305 81.5421 502.316 79.7571 498.032 79.7571H483.752V89.9571Z" fill="white"/>
<path d="M540.286 72.8721C554.77 72.8721 562.93 80.0631 562.93 91.6911C562.93 103.472 555.229 110.612 540.286 110.612C525.343 110.612 517.642 103.472 517.642 91.6911C517.642 80.0631 525.802 72.8721 540.286 72.8721ZM540.286 104.237C548.956 104.237 553.954 99.9531 553.954 91.6401C553.954 83.3781 549.262 79.1451 540.286 79.1451C531.31 79.1451 526.618 83.3781 526.618 91.6401C526.618 99.9531 531.616 104.237 540.286 104.237Z" fill="white"/>
<path d="M601.238 92.3031V92.8131C605.93 93.3741 608.429 96.0261 608.429 99.8511V110H599.963V99.6471C599.963 96.2811 596.75 95.1591 594.047 95.1591H579.512V110H570.842V73.4331H595.781C605.267 73.4331 609.194 77.3091 609.194 83.1741C609.194 88.9881 605.675 91.4361 601.238 92.3031ZM579.512 89.2941H594.404C598.586 89.2941 600.83 87.6621 600.83 84.0921C600.83 81.1851 598.892 79.4001 594.608 79.4001H579.512V89.2941Z" fill="white"/>
<path d="M654.375 73.4331V79.4511H637.851V110H629.181V79.4511H612.657V73.4331H654.375Z" fill="white"/>
<path d="M676.982 110.612C662.141 110.612 657.5 106.583 657.347 98.4741H665.813C666.119 102.401 668.618 104.696 677.033 104.696C685.244 104.696 687.947 102.809 687.947 99.8511C687.947 96.7401 686.111 95.7201 676.166 94.8021C661.478 93.4761 658.061 90.5691 658.061 83.8881C658.061 77.0031 663.722 72.8721 675.452 72.8721C688.304 72.8721 694.169 76.2381 694.424 84.0411H685.754C685.448 80.5221 682.745 78.9921 675.656 78.9921C668.975 78.9921 666.119 80.2671 666.119 83.1231C666.119 85.9791 667.955 87.0501 678.155 88.0701C692.18 89.4471 696.209 91.8441 696.209 99.0351C696.209 106.532 689.834 110.612 676.982 110.612Z" fill="white"/> -->
</svg>
